<svg id="clothes-svgrepo-com" xmlns="http://www.w3.org/2000/svg" width="69.596" height="69.596" viewBox="0 0 69.596 69.596">
  <path id="Path_5" data-name="Path 5" d="M34.8,0A34.8,34.8,0,1,0,69.6,34.8,34.8,34.8,0,0,0,34.8,0Z" fill="#d8dbba"/>
  <g id="Group_2" data-name="Group 2" transform="translate(15.116 3.712)">
    <path id="Path_6" data-name="Path 6" d="M199.532,26.465c-2.2,0-7.825,4.7-7.825,10.762,0,9.786,3.852,9.645,7.825,9.645s7.825.185,7.825-9.645C207.357,31.16,202.147,26.465,199.532,26.465Z" transform="translate(-179.933 -26.465)" fill="#7cc6ce"/>
    <path id="Path_7" data-name="Path 7" d="M146.972,164.468c-.528-3.2-2.058-6.119-5.746-13.4-1.039-2.052-7.694-3.217-7.694-3.217s-5.417,3.051-6.083,3.051c-.786,0-6.761-3.051-6.761-3.051s-6,1.154-7.016,3.217c-3.348,6.809-5.219,10.207-5.746,13.4s.418,19.139.418,19.139a9.391,9.391,0,0,0,1.969-.184,2.486,2.486,0,0,0,1.473-.8s.283-15.04.736-16.926,3.774-6.736,3.774-6.736l1.584,12.473-2.014,13.647c0,1.66,2.117,2.071,4.729,2.071H134.3c2.612,0,4.73-.411,4.73-2.071l-2.015-13.647,1.584-12.473s3.321,4.851,3.773,6.736.736,16.926.736,16.926a3.153,3.153,0,0,0,1.383.8,4.478,4.478,0,0,0,2.059.184S147.5,167.665,146.972,164.468Z" transform="translate(-107.768 -130.821)" fill="#7cc6ce"/>
  </g>
  <g id="Group_3" data-name="Group 3" transform="translate(23.252 26.375)">
    <path id="Path_8" data-name="Path 8" d="M166.2,191.238c-.031-.953-.41-3.2-.41-3.2a26.686,26.686,0,0,0,.351,5.477S166.226,192.19,166.2,191.238Z" transform="translate(-165.771 -188.041)" fill="#459aa3"/>
    <path id="Path_9" data-name="Path 9" d="M327.615,188.041s-.379,2.244-.41,3.2.059,2.28.059,2.28A26.668,26.668,0,0,0,327.615,188.041Z" transform="translate(-304.556 -188.041)" fill="#459aa3"/>
  </g>
  <path id="Path_10" data-name="Path 10" d="M267.229,167.794c0-1.129.393-3.856.393-3.856h-.393s-.393,2.728-.393,3.856.851,5.549.785,7.336a31.487,31.487,0,0,1-.393,3.668h.393a31.535,31.535,0,0,0,.393-3.668C268.08,173.344,267.229,168.923,267.229,167.794Z" transform="translate(-229.409 -140.943)" fill="#dce9ea"/>
  <circle id="Ellipse_1" data-name="Ellipse 1" cx="0.426" cy="0.426" r="0.426" transform="translate(37.558 22.602)" fill="#6fb8bc"/>
  <path id="Path_11" data-name="Path 11" d="M224.813,176.2c.066-1.787.316-6.6.316-7.725s-.491-4.539-.491-4.539h-.393s.491,3.41.491,4.539-.251,5.938-.316,7.725a20.4,20.4,0,0,0,.305,3.8h.393A20.4,20.4,0,0,1,224.813,176.2Z" transform="translate(-192.792 -140.943)" fill="#dce9ea"/>
  <circle id="Ellipse_2" data-name="Ellipse 2" cx="0.426" cy="0.426" r="0.426" transform="translate(31.191 22.602)" fill="#6fb8bc"/>
  <g id="Group_4" data-name="Group 4" transform="translate(28.858 6.453)">
    <path id="Path_12" data-name="Path 12" d="M211.625,46.008c-3.251,0-5.887,2.787-5.887,7.963s5.887,9.372,5.887,9.372,5.887-4.2,5.887-9.372S214.877,46.008,211.625,46.008Z" transform="translate(-205.738 -46.008)" fill="#66a7aa"/>
    <path id="Path_13" data-name="Path 13" d="M231.371,154.841l2.087,7.022h.4l2.086-7.022Z" transform="translate(-227.776 -139.576)" fill="#66a7aa"/>
  </g>
  <rect id="Rectangle_6" data-name="Rectangle 6" width="0.398" height="31.308" transform="translate(34.54 28.74)" fill="#66bbbf"/>
  <path id="Path_14" data-name="Path 14" d="M247.225,207.034v31.009h.136V207.036Z" transform="translate(-212.548 -177.995)" fill="#eae7df"/>
  <path id="Path_15" data-name="Path 15" d="M245.657,203.447c-.187,0-.338.424-.338.752s.151.434.338.434.338-.107.338-.434S245.844,203.447,245.657,203.447Z" transform="translate(-210.91 -174.911)" fill="#e2e1e0"/>
  <path id="Path_16" data-name="Path 16" d="M245.824,208.793c0,.259.12.344.267.344s.267-.085.267-.344Z" transform="translate(-211.344 -179.507)" fill="#d3d2d1"/>
  <path id="Path_17" data-name="Path 17" d="M246.125,209.012c0,.259.12.344.267.344s.267-.085.267-.344Z" transform="translate(-211.603 -179.695)" fill="#e2e1e0"/>
</svg>
